<?xml version="1.0" encoding="utf-8"?>
<!-- Generator: Adobe Illustrator 21.0.0, SVG Export Plug-In . SVG Version: 6.00 Build 0)  -->
<svg version="1.1" id="Layer_1" xmlns="http://www.w3.org/2000/svg" xmlns:xlink="http://www.w3.org/1999/xlink" x="0px" y="0px"
	 viewBox="0 0 432 432" style="enable-background:new 0 0 432 432;" xml:space="preserve">
<style type="text/css">
	.st0{fill:#FFFFFF;}
</style>
<path class="st0" d="M119.5,142.9H92.3c-3.5,0-6.3,2.8-6.3,6.3c0,3.5,2.8,6.3,6.3,6.3h27.2c3.5,0,6.3-2.8,6.3-6.3
	C125.8,145.7,123,142.9,119.5,142.9z"/>
<path class="st0" d="M107.7,161H82.3c-3.5,0-6.4,2.9-6.4,6.4c0,3.5,2.9,6.4,6.4,6.4h25.4c3.5,0,6.4-2.9,6.4-6.4
	C114.1,163.9,111.2,161,107.7,161z"/>
<path class="st0" d="M135.7,161H125c-3.5,0-6.4,2.9-6.4,6.4c0,3.5,2.9,6.4,6.4,6.4h10.7c3.5,0,6.4-2.9,6.4-6.4
	C142.1,163.9,139.2,161,135.7,161z"/>
<path class="st0" d="M99.5,179.4h-6.9c-3.5,0-6.4,2.9-6.4,6.4s2.9,6.4,6.4,6.4h6.9c3.5,0,6.4-2.9,6.4-6.4S103,179.4,99.5,179.4z"/>
<path class="st0" d="M114,197.4H85.5c-3.5,0-6.4,2.9-6.4,6.4c0,3.5,2.9,6.4,6.4,6.4H114c3.5,0,6.4-2.9,6.4-6.4
	C120.4,200.2,117.5,197.4,114,197.4z"/>
<path class="st0" d="M94.9,215.8h-2.4c-3.5,0-6.4,2.9-6.4,6.4s2.9,6.4,6.4,6.4h2.4c3.5,0,6.4-2.9,6.4-6.4S98.4,215.8,94.9,215.8z"/>
<path class="st0" d="M122,215.8h-10.9c-3.5,0-6.4,2.9-6.4,6.4c0,3.5,2.9,6.4,6.4,6.4H122c3.5,0,6.4-2.9,6.4-6.4
	C128.4,218.6,125.6,215.8,122,215.8z"/>
<path class="st0" d="M128.7,234.1H92.6c-3.5,0-6.4,2.9-6.4,6.4c0,3.5,2.9,6.4,6.4,6.4h36.1c3.5,0,6.4-2.9,6.4-6.4
	C135.1,237,132.2,234.1,128.7,234.1z"/>
<path class="st0" d="M181,234.1h-15c-3.5,0-6.4,2.9-6.4,6.4c0,3.5,2.9,6.4,6.4,6.4h15c3.5,0,6.4-2.9,6.4-6.4
	C187.4,237,184.6,234.1,181,234.1z"/>
<path class="st0" d="M104.2,251.4H83.9c-3.5,0-6.4,2.9-6.4,6.4c0,3.5,2.9,6.4,6.4,6.4h20.3c3.5,0,6.4-2.9,6.4-6.4
	C110.6,254.2,107.8,251.4,104.2,251.4z"/>
<path class="st0" d="M97.8,287.4h-9.9c-3.5,0-6.4,2.9-6.4,6.4c0,3.5,2.9,6.4,6.4,6.4h9.9c3.5,0,6.4-2.9,6.4-6.4
	C104.2,290.2,101.3,287.4,97.8,287.4z"/>
<path class="st0" d="M119.6,287.1h-6.5c-3.5,0-6.4,2.9-6.4,6.4c0,3.5,2.9,6.4,6.4,6.4h6.5c3.5,0,6.4-2.9,6.4-6.4
	C126,289.9,123.1,287.1,119.6,287.1z"/>
<path class="st0" d="M126.6,269.5h-34c-3.5,0-6.4,2.9-6.4,6.4s2.9,6.4,6.4,6.4h34c3.5,0,6.4-2.9,6.4-6.4S130.1,269.5,126.6,269.5z"
	/>
<circle class="st0" cx="119.3" cy="257.7" r="6.4"/>
<path class="st0" d="M163.2,197.4h-30.8c-3.5,0-6.4,2.9-6.4,6.4c0,3.5,2.9,6.4,6.4,6.4h30.8c3.5,0,6.4-2.9,6.4-6.4
	C169.6,200.2,166.7,197.4,163.2,197.4z"/>
<path class="st0" d="M190.8,215.8h-33.6c-3.5,0-6.4,2.9-6.4,6.4c0,3.5,2.9,6.4,6.4,6.4h33.6c3.5,0,6.4-2.9,6.4-6.4
	C197.2,218.6,194.3,215.8,190.8,215.8z"/>
<path class="st0" d="M199,197.4h-15c-3.5,0-6.4,2.9-6.4,6.4c0,3.5,2.9,6.4,6.4,6.4h15c3.5,0,6.4-2.9,6.4-6.4
	C205.4,200.2,202.6,197.4,199,197.4z"/>
<path class="st0" d="M264.7,197.4H219c-3.5,0-6.4,2.9-6.4,6.4c0,3.5,2.9,6.4,6.4,6.4h45.8c3.5,0,6.4-2.9,6.4-6.4
	C271.1,200.2,268.2,197.4,264.7,197.4z"/>
<path class="st0" d="M217.6,179.1h-20.2c-3.5,0-6.4,2.9-6.4,6.4c0,3.5,2.9,6.4,6.4,6.4h20.2c3.5,0,6.4-2.9,6.4-6.4
	C224,182,221.1,179.1,217.6,179.1z"/>
<path class="st0" d="M256,179.1h-20.2c-3.5,0-6.4,2.9-6.4,6.4c0,3.5,2.9,6.4,6.4,6.4H256c3.5,0,6.4-2.9,6.4-6.4
	C262.4,182,259.5,179.1,256,179.1z"/>
<path class="st0" d="M236.3,142.7h-8c-3.5,0-6.4,2.9-6.4,6.4s2.9,6.4,6.4,6.4h8c3.5,0,6.4-2.9,6.4-6.4S239.8,142.7,236.3,142.7z"/>
<path class="st0" d="M339.8,160.9h-43.2c-3.5,0-6.4,2.9-6.4,6.4c0,3.5,2.9,6.4,6.4,6.4h43.2c3.5,0,6.4-2.9,6.4-6.4
	C346.2,163.8,343.4,160.9,339.8,160.9z"/>
<path class="st0" d="M351.6,179.1h-40.1c-3.5,0-6.4,2.9-6.4,6.4c0,3.5,2.9,6.4,6.4,6.4h40.1c3.5,0,6.4-2.9,6.4-6.4
	C357.9,182,355.1,179.1,351.6,179.1z"/>
<path class="st0" d="M364,197.4h-40.7c-3.5,0-6.4,2.9-6.4,6.4c0,3.5,2.9,6.4,6.4,6.4H364c3.5,0,6.4-2.9,6.4-6.4
	C370.3,200.2,367.5,197.4,364,197.4z"/>
<path class="st0" d="M369.3,215.9h-41.8c-3.5,0-6.4,2.9-6.4,6.4c0,3.5,2.9,6.4,6.4,6.4h41.8c3.5,0,6.4-2.9,6.4-6.4
	C375.7,218.7,372.8,215.9,369.3,215.9z"/>
<path class="st0" d="M364,233h-35.9c-3.5,0-6.4,2.9-6.4,6.4c0,3.5,2.9,6.4,6.4,6.4H364c3.5,0,6.4-2.9,6.4-6.4
	C370.3,235.9,367.5,233,364,233z"/>
<path class="st0" d="M353.2,251.6h-35.9c-3.5,0-6.4,2.9-6.4,6.4c0,3.5,2.9,6.4,6.4,6.4h35.9c3.5,0,6.4-2.9,6.4-6.4
	C359.6,254.4,356.7,251.6,353.2,251.6z"/>
<path class="st0" d="M341.8,269.6h-67.2c-3.5,0-6.4,2.9-6.4,6.4s2.9,6.4,6.4,6.4h67.2c3.5,0,6.4-2.9,6.4-6.4
	S345.4,269.6,341.8,269.6z"/>
<path class="st0" d="M326.1,287.7h-30.7c-3.5,0-6.4,2.9-6.4,6.4c0,3.5,2.9,6.4,6.4,6.4h30.7c3.5,0,6.4-2.9,6.4-6.4
	C332.5,290.5,329.6,287.7,326.1,287.7z"/>
<path class="st0" d="M277.3,287.7h-4.2c-3.5,0-6.4,2.9-6.4,6.4c0,3.5,2.9,6.4,6.4,6.4h4.2c3.5,0,6.4-2.9,6.4-6.4
	C283.7,290.5,280.8,287.7,277.3,287.7z"/>
<path class="st0" d="M255.5,287.7h-26.8c-3.5,0-6.4,2.9-6.4,6.4c0,3.5,2.9,6.4,6.4,6.4h26.8c3.5,0,6.4-2.9,6.4-6.4
	C261.9,290.5,259,287.7,255.5,287.7z"/>
<path class="st0" d="M257.5,269.6h-24.4c-3.5,0-6.4,2.9-6.4,6.4s2.9,6.4,6.4,6.4h24.4c3.5,0,6.4-2.9,6.4-6.4S261,269.6,257.5,269.6z
	"/>
<path class="st0" d="M255.7,251.5h-40.1c-3.5,0-6.4,2.9-6.4,6.4c0,3.5,2.9,6.4,6.4,6.4h40.1c3.5,0,6.4-2.9,6.4-6.4
	C262.1,254.3,259.2,251.5,255.7,251.5z"/>
<path class="st0" d="M259,232.8h-25.8c-3.5,0-6.4,2.9-6.4,6.4s2.9,6.4,6.4,6.4H259c3.5,0,6.4-2.9,6.4-6.4S262.5,232.8,259,232.8z"/>
<path class="st0" d="M255.7,216.1h-22.2c-3.5,0-6.4,2.9-6.4,6.4s2.9,6.4,6.4,6.4h22.2c3.5,0,6.4-2.9,6.4-6.4
	S259.2,216.1,255.7,216.1z"/>
<path class="st0" d="M326.1,142.7h-72.2c-3.5,0-6.4,2.9-6.4,6.4c0,3.5,2.9,6.4,6.4,6.4h72.2c3.5,0,6.4-2.9,6.4-6.4
	C332.5,145.6,329.6,142.7,326.1,142.7z"/>
<path class="st0" d="M277.6,160.9h-62.1c-3.5,0-6.4,2.9-6.4,6.4c0,3.5,2.9,6.4,6.4,6.4h62.1c3.5,0,6.4-2.9,6.4-6.4
	C283.9,163.8,281.1,160.9,277.6,160.9z"/>
<path class="st0" d="M148.9,179.4h-32.4c-3.5,0-6.4,2.9-6.4,6.4s2.9,6.4,6.4,6.4h32.4c3.5,0,6.4-2.9,6.4-6.4
	S152.4,179.4,148.9,179.4z"/>
</svg>
