<svg width="182" height="182" viewBox="0 0 182 182" fill="none" xmlns="http://www.w3.org/2000/svg">
<path d="M43.1829 123.945V136.037H40.7394V128.158L37.4954 136.037H35.6417L32.4398 128.158V136.037H29.9963V123.945H32.7347L36.5685 132.961L40.4023 123.945H43.1829Z" fill="black"/>
<path d="M45.5421 128.622C45.9213 127.863 46.469 127.274 47.1009 126.894C47.7329 126.515 48.4912 126.305 49.3338 126.305C50.05 126.305 50.6819 126.431 51.2296 126.726C51.7773 127.021 52.1986 127.4 52.5357 127.821V126.431H54.9792V136.037H52.5357V134.646C52.2407 135.11 51.7773 135.489 51.2296 135.784C50.6819 136.079 50.05 136.247 49.3338 136.247C48.5333 136.247 47.775 136.037 47.1431 135.615C46.469 135.194 45.9634 134.604 45.5843 133.846C45.2051 133.087 44.9945 132.203 44.9945 131.234C44.9523 130.223 45.163 129.338 45.5421 128.622ZM52.1565 129.717C51.9458 129.296 51.6088 128.959 51.2296 128.748C50.8505 128.537 50.4292 128.411 49.9657 128.411C49.5023 128.411 49.081 128.537 48.7019 128.748C48.3227 128.959 48.0278 129.296 47.775 129.717C47.5222 130.138 47.438 130.644 47.438 131.234C47.438 131.824 47.5644 132.329 47.775 132.75C48.0278 133.172 48.3227 133.509 48.7019 133.762C49.081 133.972 49.5023 134.099 49.9236 134.099C50.387 134.099 50.8083 133.972 51.1875 133.762C51.5667 133.551 51.9037 133.214 52.1144 132.793C52.325 132.371 52.4514 131.866 52.4514 131.276C52.5357 130.644 52.4093 130.138 52.1565 129.717Z" fill="black"/>
<path d="M58.8972 135.742C58.2653 135.447 57.7597 135.068 57.4227 134.604C57.0435 134.099 56.875 133.593 56.8329 133.003H59.2764C59.3185 133.382 59.4871 133.677 59.8241 133.93C60.1611 134.183 60.5403 134.309 61.0037 134.309C61.4671 134.309 61.8463 134.225 62.0991 134.014C62.3519 133.846 62.4783 133.593 62.4783 133.298C62.4783 133.003 62.3097 132.75 62.0148 132.582C61.6778 132.413 61.1722 132.245 60.4982 132.076C59.782 131.908 59.1921 131.739 58.7287 131.529C58.2653 131.36 57.8861 131.065 57.5491 130.686C57.2121 130.307 57.0435 129.801 57.0435 129.127C57.0435 128.58 57.2121 128.116 57.507 127.653C57.8019 127.231 58.2653 126.852 58.813 126.6C59.4028 126.347 60.0769 126.22 60.8352 126.22C61.9727 126.22 62.8996 126.515 63.5736 127.063C64.2477 127.611 64.6269 128.411 64.7111 129.38H62.394C62.3519 129.001 62.1834 128.706 61.9306 128.453C61.6357 128.243 61.2565 128.116 60.7931 128.116C60.3718 128.116 60.0347 128.2 59.782 128.369C59.5292 128.537 59.4449 128.748 59.4449 129.043C59.4449 129.38 59.6134 129.633 59.9505 129.759C60.2875 129.928 60.7931 130.096 61.4671 130.265C62.1412 130.433 62.731 130.602 63.1945 130.812C63.6579 130.981 64.0371 131.276 64.3741 131.655C64.7111 132.034 64.8796 132.54 64.8796 133.172C64.8796 133.719 64.7111 134.225 64.4162 134.646C64.1213 135.068 63.6579 135.447 63.1102 135.657C62.5204 135.91 61.8884 136.037 61.088 136.037C60.2454 136.205 59.5292 136.037 58.8972 135.742Z" fill="black"/>
<path d="M69.5982 128.411V133.045C69.5982 133.382 69.6824 133.593 69.8509 133.762C70.0195 133.888 70.2722 133.972 70.6514 133.972H71.7889V136.037H70.2722C68.2079 136.037 67.1968 135.025 67.1968 133.045V128.411H66.0593V126.431H67.1968V124.072H69.6403V126.431H71.7889V128.411H69.5982Z" fill="black"/>
<path d="M82.3634 131.95H75.3278C75.3699 132.624 75.6227 133.172 76.044 133.593C76.4653 133.972 77.013 134.183 77.6028 134.183C78.4875 134.183 79.1616 133.804 79.5408 133.003H82.1528C81.8579 133.93 81.3523 134.688 80.5519 135.278C79.7514 135.868 78.7824 136.163 77.6449 136.163C76.7181 136.163 75.8755 135.952 75.1593 135.531C74.4431 135.11 73.8533 134.52 73.432 133.804C73.0107 133.045 72.8 132.203 72.8 131.192C72.8 130.181 73.0107 129.338 73.3898 128.58C73.8111 127.821 74.3588 127.231 75.075 126.852C75.7912 126.473 76.6338 126.262 77.6028 126.262C78.5296 126.262 79.3301 126.473 80.0463 126.852C80.7625 127.231 81.3102 127.821 81.7315 128.537C82.1107 129.254 82.3213 130.096 82.3213 131.023C82.4477 131.36 82.4056 131.655 82.3634 131.95ZM79.9199 130.307C79.9199 129.675 79.6671 129.169 79.2459 128.79C78.8246 128.411 78.2769 128.243 77.6449 128.243C77.0551 128.243 76.5496 128.411 76.1283 128.79C75.707 129.169 75.4542 129.675 75.3699 130.307H79.9199Z" fill="black"/>
<path d="M87.8824 126.726C88.388 126.431 88.9778 126.305 89.6097 126.305V128.875H88.9778C88.2194 128.875 87.6296 129.043 87.2505 129.422C86.8713 129.801 86.6607 130.391 86.6607 131.276V136.079H84.2171V126.473H86.6607V127.948C86.9556 127.4 87.3769 127.021 87.8824 126.726Z" fill="black"/>
<path d="M95.6343 128.411H93.9491V136.037H91.5056V128.411H90.4102V126.431H91.5056V125.925C91.5056 124.746 91.8426 123.861 92.5167 123.313C93.1907 122.766 94.2019 122.513 95.55 122.513V124.577C94.9602 124.577 94.5389 124.662 94.3282 124.872C94.0755 125.083 93.9912 125.462 93.9912 126.01V126.389H95.6764V128.411H95.6343Z" fill="black"/>
<path d="M106.293 126.431V136.037H103.85V134.815C103.555 135.236 103.133 135.573 102.628 135.784C102.122 136.037 101.575 136.121 100.985 136.121C100.226 136.121 99.5523 135.952 99.0046 135.657C98.4148 135.32 97.9935 134.857 97.6565 134.267C97.3195 133.635 97.1509 132.919 97.1509 132.076V126.431H99.5945V131.739C99.5945 132.498 99.8051 133.087 100.184 133.509C100.563 133.93 101.069 134.141 101.743 134.141C102.417 134.141 102.923 133.93 103.302 133.509C103.681 133.087 103.892 132.498 103.892 131.739V126.431H106.293Z" fill="black"/>
<path d="M111.096 123.187V136.037H108.652V123.187H111.096Z" fill="black"/>
<path d="M125.209 124.662C126.178 125.167 126.937 125.883 127.442 126.768C127.948 127.695 128.243 128.748 128.243 129.97C128.243 131.192 127.99 132.245 127.442 133.172C126.937 134.099 126.178 134.773 125.209 135.278C124.24 135.784 123.145 136.037 121.839 136.037H117.626V123.945H121.839C123.103 123.945 124.24 124.156 125.209 124.662ZM124.704 132.919C125.378 132.245 125.757 131.234 125.757 129.97C125.757 128.706 125.42 127.737 124.704 127.021C124.03 126.305 123.019 125.968 121.755 125.968H120.027V133.972H121.755C123.019 133.972 124.03 133.635 124.704 132.919Z" fill="black"/>
<path d="M130.012 128.622C130.391 127.863 130.939 127.274 131.571 126.894C132.203 126.515 132.961 126.305 133.804 126.305C134.52 126.305 135.152 126.431 135.7 126.726C136.247 127.021 136.669 127.4 137.006 127.821V126.431H139.449V136.037H137.006V134.646C136.711 135.11 136.247 135.489 135.7 135.784C135.152 136.079 134.52 136.247 133.804 136.247C133.003 136.247 132.245 136.037 131.613 135.615C130.939 135.194 130.433 134.604 130.054 133.846C129.675 133.087 129.464 132.203 129.464 131.234C129.422 130.223 129.633 129.338 130.012 128.622ZM136.626 129.717C136.416 129.296 136.079 128.959 135.7 128.748C135.32 128.537 134.899 128.411 134.436 128.411C133.972 128.411 133.551 128.537 133.172 128.748C132.793 128.959 132.498 129.296 132.245 129.717C131.992 130.138 131.908 130.644 131.908 131.234C131.908 131.824 132.034 132.329 132.245 132.75C132.498 133.172 132.793 133.509 133.172 133.762C133.551 133.972 133.972 134.099 134.394 134.099C134.857 134.099 135.278 133.972 135.657 133.762C136.037 133.551 136.374 133.214 136.584 132.793C136.795 132.371 136.921 131.866 136.921 131.276C136.963 130.644 136.879 130.138 136.626 129.717Z" fill="black"/>
<path d="M144.631 128.411V133.045C144.631 133.382 144.715 133.593 144.884 133.762C145.052 133.888 145.305 133.972 145.684 133.972H146.822V136.037H145.305C143.241 136.037 142.23 135.025 142.23 133.045V128.411H141.092V126.431H142.23V124.072H144.673V126.431H146.822V128.411H144.631Z" fill="black"/>
<path d="M148.507 128.622C148.886 127.863 149.434 127.274 150.066 126.894C150.698 126.515 151.456 126.305 152.299 126.305C153.015 126.305 153.647 126.431 154.194 126.726C154.742 127.021 155.163 127.4 155.5 127.821V126.431H157.944V136.037H155.458V134.646C155.163 135.11 154.7 135.489 154.152 135.784C153.605 136.079 152.973 136.247 152.256 136.247C151.456 136.247 150.698 136.037 150.066 135.615C149.392 135.194 148.886 134.604 148.507 133.846C148.128 133.087 147.917 132.203 147.917 131.234C147.917 130.223 148.086 129.338 148.507 128.622ZM155.121 129.717C154.911 129.296 154.574 128.959 154.194 128.748C153.815 128.537 153.394 128.411 152.931 128.411C152.467 128.411 152.046 128.537 151.667 128.748C151.288 128.959 150.993 129.296 150.74 129.717C150.487 130.138 150.403 130.644 150.403 131.234C150.403 131.824 150.529 132.329 150.74 132.75C150.993 133.172 151.288 133.509 151.667 133.762C152.046 133.972 152.467 134.099 152.888 134.099C153.352 134.099 153.773 133.972 154.152 133.762C154.531 133.551 154.869 133.214 155.079 132.793C155.29 132.371 155.416 131.866 155.416 131.276C155.458 130.644 155.332 130.138 155.121 129.717Z" fill="black"/>
<path d="M56.6222 56.3694H46.6796C45.4157 56.3694 44.3625 57.4227 44.3625 58.6866C44.3625 59.9505 45.4157 61.0037 46.6796 61.0037H56.6222C57.8861 61.0037 58.9393 59.9505 58.9393 58.6866C58.9393 57.4227 57.8861 56.3694 56.6222 56.3694Z" fill="#FFB71A"/>
<path d="M52.325 62.9838H43.0565C41.7505 62.9838 40.7393 64.037 40.7393 65.3009C40.7393 66.6069 41.7926 67.6181 43.0565 67.6181H52.325C53.631 67.6181 54.6421 66.5648 54.6421 65.3009C54.6421 64.037 53.5889 62.9838 52.325 62.9838Z" fill="#FF5F01"/>
<path d="M62.5204 62.9838H58.6023C57.2963 62.9838 56.2852 64.037 56.2852 65.3009C56.2852 66.6069 57.3384 67.6181 58.6023 67.6181H62.5204C63.8264 67.6181 64.8375 66.5648 64.8375 65.3009C64.8796 64.037 63.8264 62.9838 62.5204 62.9838Z" fill="#2092D0"/>
<path d="M49.2917 69.6824H46.7639C45.4579 69.6824 44.4467 70.7356 44.4467 71.9995C44.4467 73.3056 45.5 74.3167 46.7639 74.3167H49.2917C50.5977 74.3167 51.6088 73.2634 51.6088 71.9995C51.6088 70.7356 50.5977 69.6824 49.2917 69.6824Z" fill="#3AAD2A"/>
<path d="M54.6 76.2546H44.194C42.888 76.2546 41.8769 77.3079 41.8769 78.5718C41.8769 79.8778 42.9301 80.8889 44.194 80.8889H54.6C55.906 80.8889 56.9171 79.8357 56.9171 78.5718C56.9171 77.3079 55.906 76.2546 54.6 76.2546Z" fill="#E73B2D"/>
<path d="M47.6486 82.9532H46.806C45.5 82.9532 44.4889 84.0065 44.4889 85.2704C44.4889 86.5764 45.5421 87.5875 46.806 87.5875H47.6486C48.9546 87.5875 49.9657 86.5343 49.9657 85.2704C49.9657 84.0065 48.9125 82.9532 47.6486 82.9532Z" fill="#3AAD2A"/>
<path d="M57.5491 82.9532H53.5889C52.2829 82.9532 51.2718 84.0065 51.2718 85.2704C51.2718 86.5764 52.325 87.5875 53.5889 87.5875H57.5491C58.8551 87.5875 59.8662 86.5343 59.8662 85.2704C59.8662 84.0065 58.813 82.9532 57.5491 82.9532Z" fill="#FFB71A"/>
<path d="M59.9505 89.694H46.7639C45.4579 89.694 44.4467 90.7472 44.4467 92.0111C44.4467 93.3171 45.5 94.3282 46.7639 94.3282H59.9505C61.2565 94.3282 62.2676 93.275 62.2676 92.0111C62.3097 90.7051 61.2565 89.694 59.9505 89.694Z" fill="#FF5F01"/>
<path d="M79.0773 89.694H73.6005C72.2944 89.694 71.2833 90.7472 71.2833 92.0111C71.2833 93.3171 72.3366 94.3282 73.6005 94.3282H79.0773C80.3833 94.3282 81.3944 93.275 81.3944 92.0111C81.4366 90.7051 80.3833 89.694 79.0773 89.694Z" fill="#83DBDF"/>
<path d="M51.0611 95.9713H43.6463C42.3403 95.9713 41.3292 97.0246 41.3292 98.2884C41.3292 99.5945 42.3824 100.606 43.6463 100.606H51.0611C52.3671 100.606 53.3782 99.5523 53.3782 98.2884C53.3782 97.0246 52.325 95.9713 51.0611 95.9713Z" fill="#2091CD"/>
<path d="M48.7018 109.116H45.0787C43.7727 109.116 42.7616 110.169 42.7616 111.433C42.7616 112.739 43.8148 113.75 45.0787 113.75H48.7018C50.0079 113.75 51.019 112.697 51.019 111.433C51.019 110.169 49.9657 109.116 48.7018 109.116Z" fill="#3AAD2A"/>
<path d="M56.6643 108.989H54.263C52.9569 108.989 51.9458 110.043 51.9458 111.306C51.9458 112.612 52.9991 113.624 54.263 113.624H56.6643C57.9704 113.624 58.9815 112.57 58.9815 111.306C58.9815 110.043 57.9282 108.989 56.6643 108.989Z" fill="#EA3B2A"/>
<path d="M59.1921 102.586H46.7639C45.4579 102.586 44.4467 103.639 44.4467 104.903C44.4467 106.209 45.5 107.22 46.7639 107.22H59.1921C60.4981 107.22 61.5092 106.167 61.5092 104.903C61.5514 103.639 60.4981 102.586 59.1921 102.586Z" fill="#86DBE0"/>
<path d="M56.538 100.606C57.8177 100.606 58.8551 99.5682 58.8551 98.2884C58.8551 97.0087 57.8177 95.9713 56.538 95.9713C55.2582 95.9713 54.2208 97.0087 54.2208 98.2884C54.2208 99.5682 55.2582 100.606 56.538 100.606Z" fill="#3AAD2A"/>
<path d="M72.5894 76.2546H61.3408C60.0347 76.2546 59.0236 77.3079 59.0236 78.5718C59.0236 79.8778 60.0769 80.8889 61.3408 80.8889H72.5894C73.8954 80.8889 74.9065 79.8357 74.9065 78.5718C74.9065 77.3079 73.8532 76.2546 72.5894 76.2546Z" fill="#2092D0"/>
<path d="M82.6583 82.9532H70.3986C69.0926 82.9532 68.0815 84.0065 68.0815 85.2704C68.0815 86.5764 69.1347 87.5875 70.3986 87.5875H82.6583C83.9643 87.5875 84.9755 86.5343 84.9755 85.2704C84.9755 84.0065 83.9222 82.9532 82.6583 82.9532Z" fill="#3AAD2A"/>
<path d="M85.6495 76.2546H80.1727C78.8667 76.2546 77.8556 77.3079 77.8556 78.5718C77.8556 79.8778 78.9088 80.8889 80.1727 80.8889H85.6495C86.9556 80.8889 87.9667 79.8357 87.9667 78.5718C88.0088 77.3079 86.9556 76.2546 85.6495 76.2546Z" fill="#FF5F01"/>
<path d="M109.663 76.2546H92.938C91.632 76.2546 90.6208 77.3079 90.6208 78.5718C90.6208 79.8778 91.6741 80.8889 92.938 80.8889H109.663C110.969 80.8889 111.981 79.8357 111.981 78.5718C111.981 77.3079 110.927 76.2546 109.663 76.2546Z" fill="#FFB71A"/>
<path d="M92.4324 69.5981H85.1019C83.7958 69.5981 82.7847 70.6514 82.7847 71.9153C82.7847 73.2213 83.838 74.2324 85.1019 74.2324H92.4745C93.7806 74.2324 94.7917 73.1792 94.7917 71.9153C94.7917 70.6514 93.7384 69.5981 92.4324 69.5981Z" fill="#2092D0"/>
<path d="M106.462 69.5981H99.0889C97.7829 69.5981 96.7718 70.6514 96.7718 71.9153C96.7718 73.2213 97.825 74.2324 99.0889 74.2324H106.462C107.768 74.2324 108.779 73.1792 108.779 71.9153C108.821 70.6514 107.768 69.5981 106.462 69.5981Z" fill="#E73B2D"/>
<path d="M99.2574 56.2852H96.3505C95.0444 56.2852 94.0333 57.3384 94.0333 58.6023C94.0333 59.9083 95.0866 60.9194 96.3505 60.9194H99.2574C100.563 60.9194 101.575 59.8662 101.575 58.6023C101.575 57.3384 100.563 56.2852 99.2574 56.2852Z" fill="#3AAD2A"/>
<path d="M137.09 62.9417H121.333C120.027 62.9417 119.016 63.9949 119.016 65.2588C119.016 66.5648 120.069 67.5759 121.333 67.5759H137.09C138.396 67.5759 139.407 66.5227 139.407 65.2588C139.407 63.9949 138.354 62.9417 137.09 62.9417Z" fill="#E73B2D"/>
<path d="M141.387 69.5981H126.726C125.42 69.5981 124.409 70.6514 124.409 71.9153C124.409 73.2213 125.462 74.2324 126.726 74.2324H141.387C142.693 74.2324 143.704 73.1792 143.704 71.9153C143.704 70.6514 142.651 69.5981 141.387 69.5981Z" fill="#3AAD2A"/>
<path d="M145.895 76.2546H131.023C129.717 76.2546 128.706 77.3079 128.706 78.5718C128.706 79.8778 129.759 80.8889 131.023 80.8889H145.895C147.201 80.8889 148.212 79.8357 148.212 78.5718C148.212 77.3079 147.159 76.2546 145.895 76.2546Z" fill="#FF5F01"/>
<path d="M147.833 82.9954H132.582C131.276 82.9954 130.265 84.0486 130.265 85.3125C130.265 86.6185 131.318 87.6296 132.582 87.6296H147.833C149.139 87.6296 150.15 86.5764 150.15 85.3125C150.192 84.0486 149.139 82.9954 147.833 82.9954Z" fill="#FFB71A"/>
<path d="M145.895 89.2727H132.793C131.487 89.2727 130.475 90.3259 130.475 91.5898C130.475 92.8958 131.529 93.9069 132.793 93.9069H145.895C147.201 93.9069 148.212 92.8537 148.212 91.5898C148.212 90.3259 147.159 89.2727 145.895 89.2727Z" fill="#2092D0"/>
<path d="M141.977 96.0555H128.875C127.569 96.0555 126.557 97.1088 126.557 98.3727C126.557 99.6787 127.611 100.69 128.875 100.69H141.977C143.283 100.69 144.294 99.6366 144.294 98.3727C144.294 97.0667 143.241 96.0555 141.977 96.0555Z" fill="#E73B2D"/>
<path d="M137.806 102.628H113.287C111.981 102.628 110.969 103.681 110.969 104.945C110.969 106.251 112.023 107.262 113.287 107.262H137.806C139.112 107.262 140.123 106.209 140.123 104.945C140.123 103.681 139.112 102.628 137.806 102.628Z" fill="#83DBDF"/>
<path d="M132.076 109.242H120.87C119.564 109.242 118.553 110.295 118.553 111.559C118.553 112.865 119.606 113.876 120.87 113.876H132.076C133.382 113.876 134.394 112.823 134.394 111.559C134.394 110.295 133.34 109.242 132.076 109.242Z" fill="#2092D0"/>
<path d="M114.256 109.242H112.697C111.391 109.242 110.38 110.295 110.38 111.559C110.38 112.865 111.433 113.876 112.697 113.876H114.256C115.562 113.876 116.573 112.823 116.573 111.559C116.573 110.295 115.519 109.242 114.256 109.242Z" fill="#FFB917"/>
<path d="M106.293 109.242H96.4769C95.1708 109.242 94.1597 110.295 94.1597 111.559C94.1597 112.865 95.213 113.876 96.4769 113.876H106.251C107.557 113.876 108.568 112.823 108.568 111.559C108.61 110.295 107.557 109.242 106.293 109.242Z" fill="#3AAD2A"/>
<path d="M107.009 102.628H98.1199C96.8139 102.628 95.8028 103.681 95.8028 104.945C95.8028 106.251 96.856 107.262 98.1199 107.262H107.009C108.315 107.262 109.326 106.209 109.326 104.945C109.326 103.681 108.315 102.628 107.009 102.628Z" fill="#E73B2D"/>
<path d="M106.335 96.0134H91.6741C90.368 96.0134 89.3569 97.0667 89.3569 98.3306C89.3569 99.6366 90.4102 100.648 91.6741 100.648H106.335C107.641 100.648 108.652 99.5944 108.652 98.3306C108.694 97.0667 107.641 96.0134 106.335 96.0134Z" fill="#83DBDF"/>
<path d="M107.557 89.1884H98.1199C96.8139 89.1884 95.8028 90.2417 95.8028 91.5055C95.8028 92.8116 96.856 93.8227 98.1199 93.8227H107.557C108.863 93.8227 109.874 92.7694 109.874 91.5055C109.874 90.2417 108.821 89.1884 107.557 89.1884Z" fill="#FF5F01"/>
<path d="M106.335 83.0796H98.2042C96.8981 83.0796 95.887 84.1329 95.887 85.3968C95.887 86.7028 96.9403 87.7139 98.2042 87.7139H106.335C107.641 87.7139 108.652 86.6606 108.652 85.3968C108.694 84.1329 107.641 83.0796 106.335 83.0796Z" fill="#2092D0"/>
<path d="M132.076 56.2852H105.703C104.397 56.2852 103.386 57.3384 103.386 58.6023C103.386 59.9083 104.439 60.9194 105.703 60.9194H132.076C133.382 60.9194 134.394 59.8662 134.394 58.6023C134.394 57.3384 133.34 56.2852 132.076 56.2852Z" fill="#2191D0"/>
<path d="M114.34 62.9417H91.6741C90.368 62.9417 89.3569 63.9949 89.3569 65.2588C89.3569 66.5648 90.4102 67.5759 91.6741 67.5759H114.34C115.646 67.5759 116.657 66.5227 116.657 65.2588C116.657 63.9949 115.646 62.9417 114.34 62.9417Z" fill="#83DBDF"/>
<path d="M67.3231 69.6824H55.5268C54.2208 69.6824 53.2097 70.7356 53.2097 71.9995C53.2097 73.3056 54.263 74.3167 55.5268 74.3167H67.3231C68.6292 74.3167 69.6403 73.2634 69.6403 71.9995C69.6824 70.7356 68.6292 69.6824 67.3231 69.6824Z" fill="#83DBDF"/>
</svg>
